name Walk3.mot
datacolumns 19
datarows 25
range 2.43600000 2.46000000
endheader

                time	   L_ground_force_vx	   L_ground_force_vy	   L_ground_force_vz	   L_ground_force_px	   L_ground_force_py	   L_ground_force_pz	   R_ground_force_vx	   R_ground_force_vy	   R_ground_force_vz	   R_ground_force_px	   R_ground_force_py	   R_ground_force_pz	   L_ground_torque_x	   L_ground_torque_y	   L_ground_torque_z	   R_ground_torque_x	   R_ground_torque_y	   R_ground_torque_z	
          2.43600000	          0.00000000	          0.00000000	          0.00000000	          0.00000000	          0.00000000	          0.00000000	          0.00000000	          0.00000000	          0.00000000	          0.00000000	          0.00000000	          0.00000000	          0.00000000	          0.00000000	          0.00000000	          0.00000000	          0.00000000	          0.00000000	
          2.43700000	          0.00000000	          0.00000000	          0.00000000	          0.00000000	          0.00000000	          0.00000000	          0.00000000	          0.00000000	          0.00000000	          0.00000000	          0.00000000	          0.00000000	          0.00000000	          0.00000000	          0.00000000	          0.00000000	          0.00000000	          0.00000000	
          2.43800000	          0.00000000	          0.00000000	          0.00000000	          0.00000000	          0.00000000	          0.00000000	          0.00000000	          0.00000000	          0.00000000	          0.00000000	          0.00000000	          0.00000000	          0.00000000	          0.00000000	          0.00000000	          0.00000000	          0.00000000	          0.00000000	
          2.43900000	          0.00000000	          0.00000000	          0.00000000	          0.00000000	          0.00000000	          0.00000000	          0.00000000	          0.00000000	          0.00000000	          0.00000000	          0.00000000	          0.00000000	          0.00000000	          0.00000000	          0.00000000	          0.00000000	          0.00000000	          0.00000000	
          2.44000000	          0.00000000	          0.00000000	          0.00000000	          0.00000000	          0.00000000	          0.00000000	          0.00000000	          0.00000000	          0.00000000	          0.00000000	          0.00000000	          0.00000000	          0.00000000	          0.00000000	          0.00000000	          0.00000000	          0.00000000	          0.00000000	
          2.44100000	          0.00000000	          0.00000000	          0.00000000	          0.00000000	          0.00000000	          0.00000000	          5.52526136	         14.45941763	          0.33376091	         -0.54143209	          0.00000000	         -0.03709628	          0.00000000	          0.00000000	          0.00000000	          0.00000000	         -0.15253795	          0.00000000	
          2.44200000	          0.00000000	          0.00000000	          0.00000000	          0.00000000	          0.00000000	          0.00000000	          8.46145124	         22.48350260	          0.43962120	         -0.54142811	          0.00000000	         -0.03635447	          0.00000000	          0.00000000	          0.00000000	          0.00000000	         -0.21329200	          0.00000000	
          2.44300000	          0.00000000	          0.00000000	          0.00000000	          0.00000000	          0.00000000	          0.00000000	         11.69699205	         31.86388614	          0.51967468	         -0.54092692	          0.00000000	         -0.03630444	          0.00000000	          0.00000000	          0.00000000	          0.00000000	         -0.26370030	          0.00000000	
          2.44400000	          0.00000000	          0.00000000	          0.00000000	          0.00000000	          0.00000000	          0.00000000	         15.16108010	         42.89788501	          0.60009764	         -0.53977184	          0.00000000	         -0.03702078	          0.00000000	          0.00000000	          0.00000000	          0.00000000	         -0.29914763	          0.00000000	
          2.44500000	          0.00000000	          0.00000000	          0.00000000	          0.00000000	          0.00000000	          0.00000000	         18.84630576	         56.07303910	          0.74587368	         -0.53809667	          0.00000000	         -0.03817285	          0.00000000	          0.00000000	          0.00000000	          0.00000000	         -0.32413067	          0.00000000	
          2.44600000	          0.00000000	          0.00000000	          0.00000000	          0.00000000	          0.00000000	          0.00000000	         22.73830933	         71.62933610	          1.03415185	         -0.53627393	          0.00000000	         -0.03926806	          0.00000000	          0.00000000	          0.00000000	          0.00000000	         -0.34694044	          0.00000000	
          2.44700000	          0.00000000	          0.00000000	          0.00000000	          0.00000000	          0.00000000	          0.00000000	         26.79862646	         89.26412451	          1.51455755	         -0.53467434	          0.00000000	         -0.04006464	          0.00000000	          0.00000000	          0.00000000	          0.00000000	         -0.37268906	          0.00000000	
          2.44800000	          0.00000000	          0.00000000	          0.00000000	          0.00000000	          0.00000000	          0.00000000	         30.96169956	        108.07757400	          2.17909150	         -0.53353193	          0.00000000	         -0.04061108	          0.00000000	          0.00000000	          0.00000000	          0.00000000	         -0.40198039	          0.00000000	
          2.44900000	          0.00000000	          0.00000000	          0.00000000	          0.00000000	          0.00000000	          0.00000000	         35.11048753	        126.78462473	          2.95794478	         -0.53291083	          0.00000000	         -0.04101190	          0.00000000	          0.00000000	          0.00000000	          0.00000000	         -0.43451073	          0.00000000	
          2.45000000	          0.00000000	          0.00000000	          0.00000000	          0.00000000	          0.00000000	          0.00000000	         39.04483991	        144.07547766	          3.73045155	         -0.53269374	          0.00000000	         -0.04127954	          0.00000000	          0.00000000	          0.00000000	          0.00000000	         -0.47066293	          0.00000000	
          2.45100000	          0.00000000	          0.00000000	          0.00000000	          0.00000000	          0.00000000	          0.00000000	         42.48828045	        158.92818521	          4.34906953	         -0.53262128	          0.00000000	         -0.04139032	          0.00000000	          0.00000000	          0.00000000	          0.00000000	         -0.50846241	          0.00000000	
          2.45200000	          0.00000000	          0.00000000	          0.00000000	          0.00000000	          0.00000000	          0.00000000	         45.15022044	        170.75607756	          4.67761438	         -0.53244204	          0.00000000	         -0.04139504	          0.00000000	          0.00000000	          0.00000000	          0.00000000	         -0.54226028	          0.00000000	
          2.45300000	          0.00000000	          0.00000000	          0.00000000	          0.00000000	          0.00000000	          0.00000000	         46.80663261	        179.39516549	          4.62289110	         -0.53208852	          0.00000000	         -0.04141344	          0.00000000	          0.00000000	          0.00000000	          0.00000000	         -0.56651283	          0.00000000	
          2.45400000	          0.00000000	          0.00000000	          0.00000000	          0.00000000	          0.00000000	          0.00000000	         47.34721049	        185.00995309	          4.15359174	         -0.53166407	          0.00000000	         -0.04153034	          0.00000000	          0.00000000	          0.00000000	          0.00000000	         -0.57913093	          0.00000000	
          2.45500000	          0.00000000	          0.00000000	          0.00000000	          0.00000000	          0.00000000	          0.00000000	         46.78446972	        187.98800443	          3.31091332	         -0.53126798	          0.00000000	         -0.04172996	          0.00000000	          0.00000000	          0.00000000	          0.00000000	         -0.58129986	          0.00000000	
          2.45600000	          0.00000000	          0.00000000	          0.00000000	          0.00000000	          0.00000000	          0.00000000	         45.24434955	        188.85060867	          2.19529806	         -0.53089982	          0.00000000	         -0.04192270	          0.00000000	          0.00000000	          0.00000000	          0.00000000	         -0.57654067	          0.00000000	
          2.45700000	          0.00000000	          0.00000000	          0.00000000	          0.00000000	          0.00000000	          0.00000000	         42.93421604	        188.18181503	          0.93216976	         -0.53050449	          0.00000000	         -0.04199838	          0.00000000	          0.00000000	          0.00000000	          0.00000000	         -0.57013273	          0.00000000	
          2.45800000	          0.00000000	          0.00000000	          0.00000000	          0.00000000	          0.00000000	          0.00000000	         40.09109148	        186.55639003	         -0.35721163	         -0.53005226	          0.00000000	         -0.04185443	          0.00000000	          0.00000000	          0.00000000	          0.00000000	         -0.56723931	          0.00000000	
          2.45900000	          0.00000000	          0.00000000	          0.00000000	          0.00000000	          0.00000000	          0.00000000	         36.93613261	        184.47810677	         -1.57779837	         -0.52955415	          0.00000000	         -0.04143911	          0.00000000	          0.00000000	          0.00000000	          0.00000000	         -0.56808102	          0.00000000	
          2.46000000	          0.00000000	          0.00000000	          0.00000000	          0.00000000	          0.00000000	          0.00000000	         33.65151851	        182.36838971	         -2.67496471	         -0.52900823	          0.00000000	         -0.04079691	          0.00000000	          0.00000000	          0.00000000	          0.00000000	         -0.56511484	          0.00000000	
